<svg width="184" height="110" viewBox="0 0 184 110" fill="none" xmlns="http://www.w3.org/2000/svg">
<path fill-rule="evenodd" clip-rule="evenodd" d="M34.1786 0H0L38.8929 55L0 110H34.1786L73.0714 55L34.1786 0Z" fill="black"/>
<path d="M77.3848 24.7495H93.492L106.063 45.1781L119.028 24.7495H134.349L113.921 54.9995L136.313 88.7852H119.421L105.671 66.3924L91.1348 88.7852H75.4205L97.8134 54.9995L77.3848 24.7495Z" fill="#231F20"/>
<path d="M154.785 34.9638L152.428 49.1067C154 47.5352 155.964 45.9638 157.928 45.5709C159.893 44.7852 162.25 44.3924 164.607 44.3924C167.75 44.3924 170.5 44.7852 172.857 45.9638C175.214 47.1424 177.178 48.7138 178.75 50.6781C180.321 52.6424 181.5 54.9995 182.678 57.3567C183.464 60.1067 183.857 62.8567 183.857 65.6067C183.857 68.7495 183.071 71.8924 181.893 74.6424C180.714 77.3924 178.75 79.7495 176.785 81.7138C174.821 83.6781 172.071 85.2495 169.321 86.4281C166.571 87.6067 163.428 87.9995 160.285 87.9995C157.143 87.9995 154.393 87.6067 151.643 86.8209C148.893 86.0352 146.535 84.8567 144.178 83.2852C142.214 81.7138 140.25 79.3567 139.071 76.9995C137.893 74.6424 137.107 71.4995 137.107 68.3567H149.678C150.071 71.1067 150.857 73.4638 152.821 75.0352C154.785 76.6067 157.143 77.7852 159.893 77.7852C161.464 77.7852 163.035 77.3924 164.214 76.6067C165.393 75.8209 166.571 75.0352 167.75 73.8567C168.535 72.6781 169.321 71.4995 169.714 69.9281C170.107 68.3567 170.5 66.7852 170.5 65.6067C170.5 64.0352 170.107 62.4638 169.714 60.8924C169.321 59.3209 168.535 58.1424 167.75 56.9638C166.964 55.7852 165.785 54.9995 164.214 54.6067C163.035 53.8209 161.464 53.8209 159.5 53.8209C157.143 53.8209 155.571 54.2138 154 54.9995C152.428 55.7852 151.25 56.9638 150.071 58.9281H138.678L145.357 24.7495H180.714V35.3567H154.785" fill="#231F20"/>
</svg>
