<svg width="81" height="48" viewBox="0 0 81 48" fill="none" xmlns="http://www.w3.org/2000/svg">
<path fill-rule="evenodd" clip-rule="evenodd" d="M14.9143 0H0L16.9714 24L0 48H14.9143L31.8857 24L14.9143 0Z" fill="#FF5E00"/>
<path d="M33.7714 10.7979H40.8L46.2857 19.7121L51.9429 10.7979H58.6286L49.7143 23.9979L59.4857 38.7407H52.1143L46.1143 28.9693L39.7714 38.7407H32.9143L42.6857 23.9979L33.7714 10.7979Z" fill="white"/>
<path d="M67.5434 15.255L66.5148 21.4264C67.2005 20.7407 68.0577 20.055 68.9148 19.8836C69.772 19.5407 70.8005 19.3693 71.8291 19.3693C73.2005 19.3693 74.4005 19.5407 75.4291 20.055C76.4577 20.5693 77.3148 21.255 78.0005 22.1121C78.6862 22.9693 79.2005 23.9979 79.7148 25.0264C80.0577 26.2264 80.2291 27.4264 80.2291 28.6264C80.2291 29.9979 79.8862 31.3693 79.372 32.5693C78.8577 33.7693 78.0005 34.7979 77.1434 35.655C76.2862 36.5121 75.0862 37.1979 73.8862 37.7121C72.6862 38.2264 71.3148 38.3979 69.9434 38.3979C68.572 38.3979 67.372 38.2264 66.172 37.8836C64.972 37.5407 63.9434 37.0264 62.9148 36.3407C62.0577 35.655 61.2005 34.6264 60.6862 33.5979C60.172 32.5693 59.8291 31.1979 59.8291 29.8264H65.3148C65.4862 31.0264 65.8291 32.055 66.6862 32.7407C67.5434 33.4264 68.572 33.9407 69.772 33.9407C70.4577 33.9407 71.1434 33.7693 71.6577 33.4264C72.172 33.0836 72.6862 32.7407 73.2005 32.2264C73.5434 31.7121 73.8862 31.1979 74.0577 30.5121C74.2291 29.8264 74.4005 29.1407 74.4005 28.6264C74.4005 27.9407 74.2291 27.255 74.0577 26.5693C73.8862 25.8836 73.5434 25.3693 73.2005 24.855C72.8577 24.3407 72.3434 23.9979 71.6577 23.8264C71.1434 23.4836 70.4577 23.4836 69.6005 23.4836C68.572 23.4836 67.8862 23.655 67.2005 23.9979C66.5148 24.3407 66.0005 24.855 65.4862 25.7121H60.5148L63.4291 10.7979H78.8577V15.4264H67.5434" fill="white"/>
</svg>
